<svg xmlns="http://www.w3.org/2000/svg" xml:space="preserve" viewBox="0 0 64 64" id="24-hour-service">
  <path d="M5.61 47.93h8.86l.18 12.32c.02 1.34.81 2.5 2.05 3 .41.17.84.25 1.26.25.85 0 1.68-.34 2.34-.99l13.88-14.58h24.2c2.82 0 5.11-2.29 5.11-5.11V5.61C63.49 2.79 61.2.5 58.38.5H5.61C2.79.5.5 2.79.5 5.61v37.2c0 2.82 2.29 5.12 5.11 5.12M3.5 5.61c0-1.17.95-2.11 2.11-2.11h52.77c1.17 0 2.11.95 2.11 2.11v37.2c0 1.17-.95 2.11-2.11 2.11H33.55c-.41 0-.8.17-1.09.47l-14.3 15.02c-.04.04-.14.14-.32.06-.18-.07-.18-.22-.19-.27l-.2-13.8a1.5 1.5 0 0 0-1.5-1.48H5.61a2.11 2.11 0 0 1-2.11-2.11z"></path>
  <path d="M16.58 21.49c-1.4 1.3-2.33 2.34-2.81 3.12-.47.78-.76 1.62-.85 2.49h8.75v-2.32h-4.96q.195-.345.51-.69c.315-.345.71-.72 1.5-1.44s1.33-1.28 1.63-1.66c.46-.58.79-1.14 1-1.67s.32-1.09.32-1.67c0-1.03-.37-1.89-1.1-2.59s-1.74-1.04-3.03-1.04c-1.17 0-2.15.3-2.93.9s-1.25 1.58-1.39 2.96l2.49.25c.05-.73.23-1.25.53-1.56s.72-.47 1.24-.47c.53 0 .94.15 1.24.45s.45.73.45 1.28c0 .5-.17 1.01-.52 1.53q-.375.555-2.07 2.13M28.26 27.1h2.42v-2.62h1.62v-2.19h-1.62v-8.26h-2.1l-5.65 8.27v2.19h5.33zm-3-4.81 2.99-4.45v4.45zM41.09 14.02h-2.84L33.37 34.4h2.79zM45.4 28.89c-.7 1.87-1.07 3.71-1.11 5.51h2.41c-.01-1.15.18-2.45.56-3.91s.94-2.84 1.67-4.14 1.45-2.29 2.15-2.99v-1.81h-8.54v2.32h5.68a18.2 18.2 0 0 0-2.82 5.02"></path>
</svg>
