<svg xmlns="http://www.w3.org/2000/svg" xml:space="preserve" id="Alarm" x="0" y="0" version="1.1" viewBox="0 0 52 52">
  <path d="M44.36 44.423H7.64a.5.5 0 0 1-.353-.854 33.86 33.86 0 0 0 8.234-22.136v-3.099c0-5.775 4.7-10.474 10.474-10.474S36.47 12.56 36.47 18.334v3.088a33.876 33.876 0 0 0 8.268 22.174.5.5 0 0 1-.378.827zm-35.648-1h34.575a34.873 34.873 0 0 1-7.817-22.001v-3.088c0-5.224-4.25-9.474-9.475-9.474s-9.474 4.25-9.474 9.474v3.099a34.877 34.877 0 0 1-7.809 21.99z" fill="#78787a" class="color000000 svgShape"></path>
  <path d="M26 50.5a6.584 6.584 0 0 1-6.577-6.577.5.5 0 0 1 .5-.5h12.154a.5.5 0 0 1 .5.5A6.584 6.584 0 0 1 26 50.5zm-5.554-6.077C20.7 47.265 23.094 49.5 26 49.5s5.3-2.235 5.554-5.077H20.446zM25.995 8.86c-2.029 0-3.68-1.651-3.68-3.68s1.651-3.68 3.68-3.68 3.68 1.65 3.68 3.68-1.65 3.68-3.68 3.68zm0-6.36a2.683 2.683 0 0 0-2.68 2.68c0 1.478 1.203 2.68 2.68 2.68s2.68-1.202 2.68-2.68a2.683 2.683 0 0 0-2.68-2.68z" fill="#78787a" class="color000000 svgShape"></path>
</svg>
