<svg xmlns="http://www.w3.org/2000/svg" xml:space="preserve" id="Avatar" x="0" y="0" version="1.1" viewBox="0 0 52 52">
  <path d="M43.813 50.57H8.187a.5.5 0 0 1-.5-.5V32.258c0-4.584 3.729-8.313 8.313-8.313h20c4.584 0 8.312 3.729 8.312 8.313V50.07a.5.5 0 0 1-.5.5zm-35.126-1h34.626V32.258c0-4.032-3.28-7.313-7.313-7.313H16c-4.032 0-7.312 3.28-7.312 7.313V49.57zM26 18.884c-4.813 0-8.728-3.915-8.728-8.728 0-4.811 3.916-8.726 8.728-8.726 4.812 0 8.728 3.915 8.728 8.726 0 4.813-3.916 8.728-8.728 8.728zM26 2.43c-4.26 0-7.728 3.466-7.728 7.726S21.74 17.884 26 17.884s7.728-3.467 7.728-7.728S30.26 2.43 26 2.43z" fill="#78787a" class="color000000 svgShape"></path>
</svg>
