<svg xmlns="http://www.w3.org/2000/svg" xml:space="preserve" id="Eye" x="0" y="0" version="1.1" viewBox="0 0 52 52">
  <path d="M26 39.54c-9.228 0-17.892-4.698-24.397-13.23a.5.5 0 0 1 0-.606c6.5-8.541 15.163-13.244 24.391-13.244 9.234 0 17.9 4.704 24.403 13.245a.5.5 0 0 1 0 .606C43.891 34.842 35.226 39.54 26 39.54zM2.63 26.008C8.917 34.093 17.202 38.54 26 38.54c8.798 0 17.084-4.448 23.37-12.534C43.086 17.912 34.8 13.46 25.994 13.46c-8.8 0-17.083 4.453-23.364 12.548z" fill="#78787a" class="color000000 svgShape"></path>
  <path d="M26 33.72c-4.257 0-7.72-3.463-7.72-7.72s3.463-7.719 7.72-7.719c4.256 0 7.72 3.463 7.72 7.72s-3.464 7.718-7.72 7.718zm0-14.439c-3.705 0-6.72 3.014-6.72 6.72s3.015 6.718 6.72 6.718 6.72-3.014 6.72-6.719-3.015-6.719-6.72-6.719z" fill="#78787a" class="color000000 svgShape"></path>
</svg>
