<svg xmlns="http://www.w3.org/2000/svg" xml:space="preserve" width="128" height="128" style="shape-rendering:geometricPrecision;text-rendering:geometricPrecision;image-rendering:optimizeQuality;fill-rule:evenodd;clip-rule:evenodd" viewBox="0 0 10.703 10.703" id="fast-delivery">
  <g id="Layer_x0020_1">
    <g id="_1935094713888">
      <g>
        <path d="M10.084 3.233l-0.31 0.29c0.348,0.447 0.601,0.965 0.739,1.521 0.142,0.572 0.162,1.184 0.035,1.8l0 0.002c-0.228,1.101 -0.879,2.005 -1.749,2.578 -0.871,0.574 -1.96,0.815 -3.061,0.588l-0.001 0c-0.502,-0.104 -0.963,-0.295 -1.371,-0.556 -0.423,-0.27 -0.788,-0.615 -1.081,-1.011 -0.042,-0.056 -0.03,-0.135 0.026,-0.176 0.055,-0.041 0.134,-0.03 0.175,0.026 0.276,0.373 0.618,0.696 1.015,0.95 0.383,0.244 0.816,0.424 1.287,0.521 1.034,0.213 2.056,-0.013 2.873,-0.551 0.817,-0.538 1.428,-1.387 1.641,-2.421 0.119,-0.578 0.101,-1.153 -0.033,-1.69 -0.138,-0.556 -0.399,-1.071 -0.759,-1.509l-0.007 -0.009c-0.216,-0.261 -0.467,-0.494 -0.748,-0.692 -0.276,-0.193 -0.58,-0.352 -0.907,-0.469 -0.058,-0.021 -0.094,-0.082 -0.081,-0.144l0.106 -0.518c0.014,-0.068 0.08,-0.112 0.148,-0.098l0.351 0.072c0.01,0.002 0.021,0 0.029,-0.006 0.008,-0.005 0.015,-0.014 0.017,-0.024l0.089 -0.434c0.002,-0.011 0,-0.021 -0.005,-0.03 -0.006,-0.008 -0.015,-0.014 -0.025,-0.016l-1.785 -0.368c-0.01,-0.002 -0.021,0 -0.029,0.006 -0.009,0.005 -0.015,0.014 -0.017,0.024l-0.089 0.434c-0.003,0.011 0,0.021 0.005,0.03 0.006,0.008 0.014,0.014 0.025,0.016l0.35 0.073c0.068,0.013 0.112,0.08 0.098,0.148l-0.106 0.512c-0.009,0.063 -0.066,0.111 -0.132,0.106 -0.348,-0.022 -0.69,0.004 -1.019,0.073 -0.338,0.071 -0.663,0.187 -0.966,0.343 -0.236,0.121 -0.458,0.267 -0.664,0.434 -0.205,0.166 -0.393,0.353 -0.56,0.56 -0.044,0.054 -0.123,0.062 -0.177,0.018 -0.054,-0.043 -0.062,-0.123 -0.018,-0.176 0.178,-0.22 0.379,-0.42 0.597,-0.597 0.188,-0.154 0.391,-0.29 0.603,-0.407l-0.169 -0.389 -0.54 0.235c-0.064,0.028 -0.138,-0.001 -0.165,-0.065 -0.028,-0.063 0.001,-0.137 0.064,-0.165l1.31 -0.571c0.063,-0.028 0.137,0.001 0.165,0.065 0.028,0.063 -0.001,0.137 -0.065,0.165l-0.539 0.235 0.163 0.375c0.288,-0.136 0.593,-0.24 0.91,-0.306 0.316,-0.066 0.644,-0.095 0.977,-0.083l0.06 -0.29 -0.228 -0.047c-0.078,-0.016 -0.142,-0.062 -0.183,-0.124 -0.041,-0.062 -0.058,-0.14 -0.042,-0.218l0.089 -0.434c0.016,-0.078 0.063,-0.143 0.125,-0.184 0.062,-0.041 0.139,-0.058 0.217,-0.042l1.785 0.368c0.079,0.016 0.143,0.062 0.184,0.124 0.041,0.062 0.058,0.14 0.042,0.218l-0.089 0.434c-0.016,0.078 -0.063,0.143 -0.125,0.184 -0.062,0.041 -0.14,0.058 -0.218,0.042l-0.227 -0.047 -0.06 0.29c0.311,0.12 0.601,0.277 0.865,0.463 0.264,0.185 0.503,0.4 0.714,0.64l0.299 -0.28 -0.403 -0.429c-0.047,-0.051 -0.045,-0.13 0.006,-0.178 0.05,-0.047 0.13,-0.045 0.177,0.006l0.977 1.042c0.048,0.051 0.045,0.13 -0.005,0.178 -0.051,0.047 -0.13,0.045 -0.178,-0.006l-0.402 -0.429zm-3.045 -0.165c0.014,-0.068 0.08,-0.112 0.148,-0.098 0.068,0.014 0.112,0.08 0.098,0.148l-0.137 0.665c-0.014,0.067 -0.08,0.111 -0.148,0.097 -0.068,-0.013 -0.111,-0.08 -0.098,-0.148l0.137 -0.664zm2.475 3.435c0.068,0.014 0.112,0.08 0.098,0.148 -0.014,0.068 -0.08,0.112 -0.148,0.098l-0.665 -0.137c-0.068,-0.014 -0.112,-0.08 -0.098,-0.148 0.014,-0.068 0.08,-0.112 0.148,-0.098l0.665 0.137zm-3.436 2.475c-0.013,0.068 -0.08,0.112 -0.148,0.098 -0.068,-0.014 -0.111,-0.08 -0.098,-0.148l0.137 -0.665c0.014,-0.068 0.081,-0.112 0.148,-0.098 0.068,0.014 0.112,0.08 0.098,0.148l-0.137 0.665zm-2.306 -0.859c-0.041,-0.056 -0.03,-0.134 0.025,-0.176 0.056,-0.041 0.134,-0.03 0.176,0.025 0.233,0.31 0.521,0.579 0.854,0.79 0.322,0.203 0.685,0.353 1.079,0.434 0.875,0.181 1.741,-0.011 2.433,-0.466 0.691,-0.456 1.209,-1.175 1.39,-2.05 0.18,-0.876 -0.012,-1.741 -0.467,-2.433 -0.456,-0.692 -1.175,-1.21 -2.05,-1.39 -0.61,-0.125 -1.215,-0.071 -1.759,0.128 -0.563,0.206 -1.062,0.565 -1.436,1.037 -0.042,0.054 -0.121,0.064 -0.176,0.021 -0.054,-0.043 -0.063,-0.122 -0.02,-0.176 0.402,-0.51 0.94,-0.897 1.546,-1.118 0.587,-0.214 1.238,-0.273 1.895,-0.138 0.943,0.194 1.719,0.753 2.209,1.498 0.491,0.746 0.698,1.678 0.503,2.621 -0.194,0.943 -0.752,1.718 -1.497,2.209 -0.746,0.491 -1.678,0.698 -2.621,0.503 -0.426,-0.087 -0.816,-0.249 -1.162,-0.468 -0.36,-0.227 -0.671,-0.517 -0.922,-0.851z" style="fill:#000;fill-rule:nonzero"></path>
        <path d="M0.335 7.377l2.963 0c0.184,0 0.335,0.151 0.335,0.335l0 0c0,0.184 -0.151,0.335 -0.335,0.335l-2.963 0c-0.184,0 -0.335,-0.151 -0.335,-0.335l0 0c0,-0.184 0.151,-0.335 0.335,-0.335zm8.363 -2.599l-1.673 1.458c-0.008,0.025 -0.019,0.051 -0.032,0.075 -0.121,0.228 -0.405,0.315 -0.633,0.193 -0.228,-0.121 -0.314,-0.404 -0.193,-0.632 0.088,-0.165 0.26,-0.256 0.434,-0.248l1.982 -1.012c0.045,-0.023 0.099,-0.007 0.128,0.034 0.029,0.042 0.025,0.099 -0.013,0.132zm-2.009 1.108c0.114,0.06 0.157,0.201 0.096,0.315 -0.06,0.113 -0.201,0.156 -0.314,0.096 -0.113,-0.061 -0.156,-0.202 -0.096,-0.315 0.06,-0.113 0.201,-0.156 0.314,-0.096zm-5.933 -0.278l2.963 0c0.185,0 0.335,0.151 0.335,0.335l0 0c0,0.184 -0.15,0.335 -0.335,0.335l-2.963 0c-0.184,0 -0.334,-0.151 -0.334,-0.335l0 0c0,-0.184 0.15,-0.335 0.334,-0.335zm-0.421 -1.769l2.963 0c0.184,0 0.335,0.151 0.335,0.335l0 0c0,0.184 -0.151,0.335 -0.335,0.335l-2.963 0c-0.184,0 -0.335,-0.151 -0.335,-0.335l0 0c0,-0.184 0.151,-0.335 0.335,-0.335z" style="fill:#000"></path>
      </g>
      <rect width="10.703" height="10.703" style="fill:none"></rect>
    </g>
  </g>
</svg>
