<svg xmlns="http://www.w3.org/2000/svg" xml:space="preserve" id="Heart" x="0" y="0" version="1.1" viewBox="0 0 52 52">
  <path d="M26.003 50.624a.501.501 0 0 1-.37-.164L5.753 28.6c-5.66-6.212-5.66-16.32.001-22.533 2.74-3.019 6.394-4.683 10.288-4.687h.013c3.727 0 7.24 1.52 9.948 4.295 2.703-2.775 6.212-4.298 9.936-4.299h.006c3.898 0 7.562 1.666 10.318 4.69 5.643 6.217 5.638 16.325-.01 22.534l-19.88 21.86a.501.501 0 0 1-.37.164zM16.055 2.38h-.012c-3.61.003-7 1.552-9.55 4.36-5.322 5.842-5.322 15.346 0 21.187l19.51 21.454 19.51-21.454c5.31-5.839 5.315-15.343.01-21.187-2.563-2.814-5.965-4.364-9.578-4.364h-.005c-3.612.001-7.01 1.551-9.567 4.364a.499.499 0 0 1-.74 0c-2.561-2.811-5.963-4.36-9.578-4.36z" fill="#78787a" class="color000000 svgShape"></path>
</svg>
