<svg xmlns="http://www.w3.org/2000/svg" viewBox="0 0 25 25" id="instagram">
  <g fill="#78787a" class="color000000 svgShape">
    <path d="M19.23,2H5.77A3.77,3.77,0,0,0,2,5.77V19.23A3.77,3.77,0,0,0,5.77,23H19.23A3.77,3.77,0,0,0,23,19.23V5.77A3.77,3.77,0,0,0,19.23,2ZM22,19.23A2.77,2.77,0,0,1,19.23,22H5.77A2.77,2.77,0,0,1,3,19.23V5.77A2.77,2.77,0,0,1,5.77,3H19.23A2.77,2.77,0,0,1,22,5.77Z" fill="#78787a" class="color000000 svgShape"></path>
    <path d="M12.5 7.28a5.22 5.22 0 105.22 5.22A5.22 5.22 0 0012.5 7.28zm0 9.44a4.22 4.22 0 114.22-4.22A4.22 4.22 0 0112.5 16.72zM18.4 4.78a1.65 1.65 0 101.65 1.65A1.65 1.65 0 0018.4 4.78zm0 2.3a.65.65 0 11.65-.65A.65.65 0 0118.4 7.08z" fill="#78787a" class="color000000 svgShape"></path>
  </g>
</svg>
