<svg xmlns="http://www.w3.org/2000/svg" viewBox="0 0 64 64" id="premium-quality">
  <path d="M32,2.49805C13.07027,2.57,4.40364,26.07276,18.50025,38.38592L18.5,57.99805a3.52426,3.52426,0,0,0,5.65142,2.76355l7.539-5.869a.50914.50914,0,0,1,.61865-.001l7.54346,5.87305a3.52357,3.52357,0,0,0,5.6474-2.76671L45.5,38.38586C59.5942,26.08589,50.92835,2.56025,32,2.49805Zm10.5,55.5a.5028.5028,0,0,1-.80859.39648l-7.541-5.87109a3.50229,3.50229,0,0,0-4.30176.001L22.3125,58.3916a.48782.48782,0,0,1-.53223.05469A.47954.47954,0,0,1,21.5,57.99805V40.57227a20.51111,20.51111,0,0,0,21-.0002Zm-10.5-17.5a17.52,17.52,0,0,1-17.5-17.5c.96145-23.21611,34.04209-23.20935,35,.00013A17.52,17.52,0,0,1,32,40.49805Z"></path>
  <path d="M32,8.498a14.51669,14.51669,0,0,0-14.5,14.5c.79679,19.23617,28.20614,19.23057,29-.00011A14.51671,14.51671,0,0,0,32,8.498Zm0,26a11.5131,11.5131,0,0,1-11.5-11.5c.63182-15.25627,22.3702-15.25185,23,.00008A11.51342,11.51342,0,0,1,32,34.49805Z"></path>
</svg>
