<svg xmlns="http://www.w3.org/2000/svg" viewBox="0 0 32 32" id="shield">
  <g id="Layer_2">
    <path d="M24.861,4.614l-8-2.4a2.979,2.979,0,0,0-1.722,0l-8,2.4A2.982,2.982,0,0,0,5,7.488V20.482a2.953,2.953,0,0,0,.381,1.466A17.1,17.1,0,0,0,8.3,25.717a17.465,17.465,0,0,0,6.777,4.051,2.995,2.995,0,0,0,1.838,0,17.461,17.461,0,0,0,6.778-4.05,17.092,17.092,0,0,0,2.921-3.769A2.943,2.943,0,0,0,27,20.482V7.488A2.982,2.982,0,0,0,24.861,4.614ZM25,20.482a.944.944,0,0,1-.117.472A15.069,15.069,0,0,1,22.3,24.283a15.455,15.455,0,0,1-6,3.58.985.985,0,0,1-.612,0,15.459,15.459,0,0,1-6-3.581,15.06,15.06,0,0,1-2.581-3.33A.947.947,0,0,1,7,20.482V7.488a.994.994,0,0,1,.713-.958l8-2.4a1,1,0,0,1,.574,0l8,2.4A.994.994,0,0,1,25,7.488Z"></path>
  </g>
</svg>
