<svg xmlns="http://www.w3.org/2000/svg" enable-background="new 0 0 360 360" viewBox="0 0 360 360" id="tiktok">
  <g display="none">
    <path fill="none" stroke="#08fff9" stroke-miterlimit="10" d="M307.63,94.06v50.4l-1.17-0.03c-28.26-0.6-55.55-10.42-77.68-28v113.74c0,13.5-2.77,26.36-7.77,38.03
		c-14.78,34.49-49.02,58.65-88.91,58.65c-53.39,0-96.68-43.29-96.68-96.68s43.29-96.68,96.68-96.68c4.93,0,9.77,0.37,14.5,1.08
		l0.25,52.43c-2.54-0.87-5.17-1.5-7.84-1.91c-2.26-0.34-4.59-0.51-6.91-0.51c-25.14,0-45.6,20.45-45.6,45.6s20.45,45.6,45.6,45.6
		c25.14,0,45.6-20.45,45.6-45.6l0.42-40.12V14.99h50.52v0.06c0,1.63,0.05,3.24,0.15,4.84C231.27,61.27,265.62,94.06,307.63,94.06z"></path>
    <path fill="none" stroke="#000" stroke-miterlimit="10" d="M307.63,96.06v50.4l-1.17-0.03c-28.26-0.6-55.55-10.42-77.68-28v113.74c0,13.5-2.77,26.36-7.77,38.03
		c-14.78,34.49-49.02,58.65-88.91,58.65c-53.39,0-96.68-43.29-96.68-96.68s43.29-96.68,96.68-96.68c4.93,0,9.77,0.37,14.5,1.08
		l0.25,52.43c-2.54-0.87-5.17-1.5-7.84-1.91c-2.26-0.34-4.59-0.51-6.91-0.51c-25.14,0-45.6,20.45-45.6,45.6s20.45,45.6,45.6,45.6
		c25.14,0,45.6-20.45,45.6-45.6l0.42-40.12V16.99h50.52v0.06c0,1.63,0.05,3.24,0.15,4.84C231.27,63.27,265.62,96.06,307.63,96.06z"></path>
    <path fill="none" stroke="#f00044" stroke-miterlimit="10" d="M323.63,110.06v50.4l-1.17-0.03c-28.26-0.6-55.55-10.42-77.68-28v113.74c0,13.5-2.77,26.36-7.77,38.03
		c-14.78,34.49-49.02,58.65-88.91,58.65c-53.39,0-96.68-43.29-96.68-96.68s43.29-96.68,96.68-96.68c4.93,0,9.77,0.37,14.5,1.08
		l0.25,52.43c-2.54-0.87-5.17-1.5-7.84-1.91c-2.26-0.34-4.59-0.51-6.91-0.51c-25.14,0-45.6,20.45-45.6,45.6s20.45,45.6,45.6,45.6
		c25.14,0,45.6-20.45,45.6-45.6l0.42-40.12V30.99h50.52v0.06c0,1.63,0.05,3.24,0.15,4.84C247.27,77.27,281.62,110.06,323.63,110.06z
		"></path>
  </g>
  <path fill="#08fff9" d="M293.73 106.44v-1.78c-15.75 0-30.28-5.21-41.98-13.97 1.06 1.41 2.16 2.79 3.32 4.12C266.16 102.15 279.44 106.44 293.73 106.44zM137.89 267.75c22.32 0 40.48-18.16 40.48-40.48l.37-35.62v-1.78l-.37 35.62c0 22.32-18.16 40.48-40.48 40.48-7.53 0-14.57-2.07-20.61-5.66.57.96 1.18 1.89 1.83 2.8C124.72 266.07 131.11 267.75 137.89 267.75zM223.59 36.29c0 1.44.04 2.88.13 4.3.17 2.74.51 5.43.98 8.08h.33c-.66-3.21-1.1-6.5-1.3-9.85-.09-1.42-.13-2.86-.13-4.3v-.05h-44.85v1.78h44.85V36.29zM137.89 141.44c4.38 0 8.68.33 12.87.96l.05 11.49c0 0 .01 0 .01 0l-.06-13.26c-4.2-.63-8.5-.96-12.87-.96-47.4 0-85.83 38.43-85.83 85.83 0 .3.01.59.01.89C52.55 179.39 90.79 141.44 137.89 141.44z"></path>
  <path fill="#08fff9" d="M52.07,226.38c0,0.3-0.01,0.59-0.01,0.89c0,29.16,14.55,54.92,36.78,70.43c-1.43-1.56-2.8-3.17-4.12-4.83
		C65.04,277.33,52.35,253.34,52.07,226.38z"></path>
  <path fill="#08fff9" d="M84.72 292.87c-11.55-14.62-18.45-33.09-18.45-53.17 0-46.97 37.74-85.13 84.56-85.82l-.05-11.49c-4.2-.63-8.5-.96-12.87-.96-47.1 0-85.34 37.95-85.82 84.94C52.35 253.34 65.04 277.33 84.72 292.87zM293.73 117.41v-10.98c-14.29 0-27.58-4.29-38.66-11.63C264.96 106.15 278.44 114.27 293.73 117.41z"></path>
  <path fill="#08fff9" d="M178.37,227.27c0,22.32-18.16,40.48-40.48,40.48c-6.78,0-13.17-1.68-18.79-4.64
		c7.34,10.32,19.39,17.07,32.99,17.07c22.32,0,40.48-18.16,40.48-40.48l0.37-35.62V48.67h31.76c-0.47-2.65-0.81-5.34-0.98-8.08
		c-0.09-1.42-0.13-2.86-0.13-4.3v-0.05h-44.85v153.64v1.78L178.37,227.27z"></path>
  <path fill="#f00044" d="M293.73,117.41v31.99v1.78l-1.04-0.03c-25.09-0.53-49.32-9.26-68.97-24.86v99.2v1.78
		c0,11.98-2.46,23.4-6.9,33.76c-13.12,30.62-43.52,52.07-78.94,52.07c-18.24,0-35.15-5.7-49.06-15.4
		c15.69,17.1,38.22,27.83,63.26,27.83c35.42,0,65.82-21.45,78.94-52.07c4.43-10.36,6.9-21.78,6.9-33.76V138.73
		c19.65,15.6,43.88,24.33,68.97,24.86l1.04,0.03v-44.75C303.07,118.87,298.32,118.36,293.73,117.41z"></path>
  <path fill="#f00044" d="M150.98 187.16l.01 1.78c-2.26-.77-4.59-1.34-6.96-1.7-2.01-.3-4.07-.45-6.13-.45-22.03 0-39.98 17.68-40.46 39.59.31 14.43 8.2 27.01 19.84 33.93-3.59-6.04-5.66-13.09-5.66-20.61 0-22.32 18.16-40.48 40.48-40.48 2.06 0 4.12.15 6.13.45 2.38.36 4.7.92 6.96 1.7l-.22-46.54c-4.2-.63-8.5-.96-12.87-.96-.42 0-.85.01-1.27.02L150.98 187.16C150.98 187.17 150.98 187.16 150.98 187.16zM251.75 90.69c-7.95-10.63-12.97-23.58-13.82-37.67-.09-1.42-.13-2.86-.13-4.3v-.05h-12.77C228.53 65.77 238.27 80.6 251.75 90.69z"></path>
  <path fill="#08fff9" d="M255.07,94.81c-1.16-1.33-2.26-2.71-3.32-4.12c-13.48-10.09-23.22-24.92-26.72-42.02h-0.33
		C228.13,67.91,239.38,84.42,255.07,94.81z"></path>
  <polygon points="150.98 187.16 150.99 187.17 150.83 153.89 150.82 153.89"></polygon>
  <path d="M97.44 226.38c-.01.3-.02.59-.02.89 0 15.54 8.81 29.06 21.69 35.84-.64-.91-1.26-1.84-1.83-2.8C105.63 253.4 97.75 240.81 97.44 226.38zM223.72 124.52v1.78c19.65 15.6 43.88 24.33 68.97 24.86l1.04.03v-1.78l-1.04-.03C267.61 148.85 243.38 140.13 223.72 124.52zM216.83 261.03c4.43-10.36 6.9-21.78 6.9-33.76v-1.78c0 11.98-2.46 23.4-6.9 33.76-13.12 30.62-43.52 52.07-78.94 52.07-20.08 0-38.55-6.9-53.17-18.45 1.31 1.66 2.69 3.27 4.12 4.83 13.91 9.7 30.81 15.4 49.06 15.4C173.31 313.1 203.71 291.65 216.83 261.03z"></path>
  <path d="M137.89,185.02c-22.32,0-40.48,18.16-40.48,40.48c0,0.3,0.02,0.59,0.02,0.89c0.48-21.91,18.43-39.59,40.46-39.59
		c2.06,0,4.12,0.15,6.13,0.45c2.38,0.36,4.7,0.92,6.96,1.7l-0.01-1.78c-2.26-0.77-4.58-1.33-6.95-1.69
		C142.02,185.17,139.95,185.02,137.89,185.02z"></path>
  <path d="M255.07,94.81c-15.69-10.39-26.94-26.9-30.37-46.14h-31.76v155.41l-0.37,35.62c0,22.32-18.16,40.48-40.48,40.48
		c-13.6,0-25.65-6.75-32.99-17.07c-12.88-6.78-21.69-20.3-21.69-35.84c0-0.3,0.02-0.59,0.02-0.89c-0.01-0.3-0.02-0.59-0.02-0.89
		c0-22.32,18.16-40.48,40.48-40.48c2.06,0,4.12,0.15,6.13,0.45c2.37,0.36,4.7,0.92,6.95,1.69l-0.16-33.28
		c-46.81,0.68-84.56,38.84-84.56,85.82c0,20.08,6.9,38.55,18.45,53.17c14.62,11.56,33.09,18.45,53.17,18.45
		c35.42,0,65.82-21.45,78.94-52.07c4.43-10.36,6.9-21.78,6.9-33.76v-99.2v-1.78c19.65,15.6,43.88,24.33,68.97,24.86l1.04,0.03
		v-31.99C278.44,114.27,264.96,106.15,255.07,94.81z"></path>
</svg>
