<svg xmlns="http://www.w3.org/2000/svg" viewBox="0 0 64 64" id="Tiktok">
  <path d="M58.338,15.415c-12.419-1.374-13.755-10.115-13.869-12.759-.015-.373-.003-.594,0-.617,.019-.269-.074-.533-.257-.73-.184-.197-.441-.308-.71-.308h-10.038c-.535,0-.969,.433-.969,.969V43.036c0,2.229-.91,4.403-2.496,5.964-1.501,1.479-3.476,2.275-5.493,2.244-.204-.009-.415-.016-.653-.044-3.782-.358-6.83-3.355-7.248-7.126-.257-2.328,.454-4.563,2.002-6.292,1.533-1.71,3.729-2.691,6.027-2.691,.669,0,1.282,.07,1.873,.215,.289,.071,.594,.005,.829-.179,.234-.184,.37-.465,.37-.763v-.301c0-.261-.105-.511-.291-.693l-8.76-8.557c-.27-.262-.665-.345-1.019-.214-8.135,3.062-13.281,10.964-12.806,19.663,.564,10.373,9.156,18.603,19.561,18.736,.076,0,.15,.002,.225,.002,7.724,0,14.785-4.5,18.03-11.513,1.211-2.61,1.824-5.41,1.824-8.325V23.831c5.366,3.778,13.356,4.086,13.729,4.098,.282,0,.517-.09,.706-.272,.189-.183,.295-.434,.295-.696v-10.582c0-.494-.371-.909-.862-.963Zm-1.076,10.506c-2.55-.232-9.346-1.181-13.084-4.837-.278-.272-.693-.352-1.053-.201s-.593,.503-.593,.893v21.386c0,2.631-.553,5.158-1.645,7.511-2.958,6.39-9.466,10.493-16.473,10.388-9.388-.12-17.141-7.546-17.649-16.905-.417-7.645,3.976-14.608,10.984-17.518l6.671,6.516c-2.77,.06-5.405,1.267-7.257,3.335-1.893,2.113-2.798,4.955-2.484,7.796,.517,4.681,4.299,8.4,8.966,8.841,.264,.032,.527,.044,.818,.055,2.545,.04,5.019-.955,6.895-2.801,1.953-1.922,3.073-4.6,3.073-7.344V2.938h8.112c.155,2.505,1.604,12.435,14.718,14.295v8.688Z" fill="#78787a" class="color000000 svgShape"></path>
</svg>
