<svg xmlns="http://www.w3.org/2000/svg" width="24" height="24" id="youtube">
  <path fill="#E74C3C" fill-rule="evenodd" d="M23.38 7.522s-.228-1.6-.924-2.304c-.882-.925-1.872-.929-2.325-.983C16.883 4 12.01 4 12.01 4H12s-4.873 0-8.12.235c-.455.054-1.444.058-2.326.983-.696.704-.923 2.304-.923 2.304S.4 9.4.4 11.278v1.762c0 1.878.232 3.756.232 3.756s.227 1.6.923 2.304c.882.925 2.042.895 2.559.992 1.857.178 7.891.233 7.891.233s4.878-.007 8.126-.242c.453-.054 1.443-.058 2.325-.983.696-.705.923-2.304.923-2.304s.232-1.878.232-3.756v-1.762c0-1.878-.232-3.756-.232-3.756ZM9.61 15.173l-.002-6.521 6.272 3.272-6.27 3.25Z"></path>
</svg>
