<svg xmlns="http://www.w3.org/2000/svg" viewBox="0 0 825.74 822.32" id="girl-influencer-using-social-media">
  <path fill="#333" d="M366,107.86s-72.44-13.41-128.78,29.52S189,286.28,189,286.28s-75.12,2.68-93.9,64.39,45.61,179.75,230.73,178.41S617.56,470.73,622.25,377.5c3.14-62.34-65.73-99.27-65.73-99.27S574,90.42,366,107.86Z"></path>
  <path fill="#333" d="M322.7,530.41h0c-49.35,0-93-8.47-129.86-25.2-31.39-14.27-57.54-34.7-75.61-59.1-23-31-32-67.75-23.43-95.83,9.86-32.39,35.24-48.44,54.79-56.2a138.39,138.39,0,0,1,39-9.06,289.82,289.82,0,0,1,3.11-57.3c4.63-29.32,16.33-69,45.79-91.41,34.46-26.26,74.75-31.77,102.48-31.77a170.4,170.4,0,0,1,27.17,2c9-.75,17.88-1.13,26.31-1.13,54.87,0,97.15,15.88,125.69,47.19,24.14,26.47,33.66,59.26,37.4,82.11a195.88,195.88,0,0,1,2.43,42.8,165.44,165.44,0,0,1,33.6,26.06c15.54,15.73,33.72,41.34,32.07,74a115.55,115.55,0,0,1-22.53,63.55c-13.65,18.62-33.42,34.71-58.76,47.82s-56.55,23.36-92.5,30.32c-36.55,7.08-78.27,10.82-124,11.15Zm16.22-423.19c-27.31,0-67,5.42-100.85,31.22-28.74,21.9-40.2,60.83-44.76,89.64a282.39,282.39,0,0,0-3,58.1,1.35,1.35,0,0,1-1.29,1.44,133.44,133.44,0,0,0-39.54,9c-19,7.54-43.59,23.11-53.13,54.45-8.3,27.28.51,62.93,23,93.29,23,31.08,80.07,83.06,203.32,83.06h0c1,0,2,.17,3.08.16,90-.65,164.48-14.81,215.28-41.1,50-25.84,77.56-63.53,79.85-109.08,1.6-31.69-16.11-56.6-31.25-71.93a160.21,160.21,0,0,0-33.77-26.06,1.32,1.32,0,0,1-.7-1.3A189.94,189.94,0,0,0,552.83,235c-3.69-22.46-13.06-54.7-36.73-80.67-28-30.71-69.63-46.29-123.7-46.29-8.41,0-17.25.38-26.25,1.14a1.09,1.09,0,0,1-.36,0A165.12,165.12,0,0,0,338.92,107.22Z"></path>
  <path fill="#f8bb24" d="M513.59,404c-7.26,0-13.62-4.11-17.43-11.28-5-9.33-4.41-21.33,1.35-29.87a4,4,0,1,1,6.68,4.5c-4.09,6.05-4.46,14.92-.92,21.59,1.39,2.62,4.58,7,10.32,7,11.52,0,23.82-5.28,23.82-20.12,0-13-15.77-16.48-15.93-16.52a4,4,0,0,1,1.66-7.87c7.72,1.62,22.31,8.81,22.31,24.39C545.45,392.67,532.65,404,513.59,404Z"></path>
  <path fill="#333" d="M513.59,405.33c-7.77,0-14.56-4.37-18.61-12-5.18-9.75-4.61-22.31,1.42-31.25a5.37,5.37,0,1,1,8.9,6c-3.82,5.66-4.16,14-.85,20.21,1.26,2.35,4.11,6.3,9.14,6.3,10.87,0,22.47-4.93,22.47-18.78,0-11.85-14.71-15.17-14.86-15.21A5.36,5.36,0,0,1,522.3,350a6,6,0,0,1,1.12.11c8.08,1.71,23.38,9.27,23.38,25.71C546.8,393.47,533.45,405.33,513.59,405.33Zm-12.74-42.92a2.68,2.68,0,0,0-2.22,1.18,28.36,28.36,0,0,0-1.28,28.49c3.57,6.72,9.49,10.57,16.24,10.57,18.26,0,30.52-10.78,30.52-26.83,0-14.72-13.89-21.53-21.24-23.08a2.68,2.68,0,0,0-1.11,5.25c.17,0,17,3.73,17,17.83,0,15.83-13,21.46-25.16,21.46-6.44,0-10-4.84-11.5-7.72-3.77-7.08-3.36-16.53,1-23a2.65,2.65,0,0,0,.41-2,2.62,2.62,0,0,0-1.13-1.71A2.68,2.68,0,0,0,500.85,362.41Z"></path>
  <path fill="#fff" d="M367.71,169.05c2.51-5,4.05-10.62,7.42-15.12s9.47-7.74,14.64-5.51c5.9,2.54,7.2,10.37,6.4,16.75-3.24,25.94-25.78,44.74-47.62,59.11S302.48,252.92,292,276.85c-8.1,18.42-6.71,40-15.07,58.28a59.33,59.33,0,0,1-23.12,26c-8.36,5.06-17.88,8-26.17,13.16-8.1,5.06-14.78,12.13-20.6,19.71a141.78,141.78,0,0,0-26.12,56.83c-7.33-10.08-19.14-16.17-31.28-19s-24.74-2.77-37.2-2.67c1.28-23,6.59-46.17,18.65-65.78S162.47,328,185,323.4c8.51-1.71,17.37-1.87,25.53-4.79a39.72,39.72,0,0,0,18.92-14.34c7.07-10,9.11-22.5,12.8-34.14A119,119,0,0,1,265.17,229c5.44-6.36,11.63-12.2,18.94-16.28,8.89-5,19-7.1,28.88-9.55C334.54,197.77,357.81,188.92,367.71,169.05Z"></path>
  <path fill="#fff" d="M149.33,313.22a1.34,1.34,0,0,1-.2-2.67l29.76-4.45c9.81-1.48,18.41-3.17,24.28-9.1,3.94-4,6.06-9.5,7.62-14.37,2.2-6.89,3.81-14.12,5.36-21.11,2.48-11.13,5-22.63,10-33.14a79.26,79.26,0,0,1,59.34-43.64,153.25,153.25,0,0,1,19.31-1.12,167.31,167.31,0,0,0,17.45-.9c10.75-1.31,22.15-4.88,34.84-10.9,8.37-4,19.82-10.51,22.55-21.46a1.34,1.34,0,1,1,2.61.65c-3,12.06-15.15,19-24,23.24-13,6.14-24.62,9.79-35.66,11.14a171.11,171.11,0,0,1-17.74.91,153,153,0,0,0-19,1.09c-24.27,3.46-46.76,20-57.29,42.14-4.87,10.23-7.4,21.59-9.85,32.57-1.57,7-3.19,14.35-5.42,21.34-1.66,5.18-3.93,11.07-8.28,15.45-7,7-17.84,8.67-25.79,9.86l-29.75,4.46Z"></path>
  <path fill="#333" d="M158.19,361.9a1.34,1.34,0,0,1-.31-2.65l23.85-5.77c11.92-2.88,24.24-5.86,35.51-11.1,12.46-5.8,22-13.85,27.7-23.28,3.32-5.53,5.49-11.81,7.59-17.89l.5-1.43c4.59-13.24,10.32-28.4,20.27-40.79,12.41-15.45,30.43-25.41,48.05-33.88,2.61-1.25,5.25-2.49,7.88-3.74,14.83-7,30.17-14.22,42.93-24.69,16.73-13.75,26.29-32.13,25.57-49.17a1.34,1.34,0,0,1,2.68-.11c.76,17.88-9.17,37.07-26.55,51.35-13,10.69-28.5,18-43.49,25.05-2.62,1.24-5.25,2.48-7.86,3.73-17.33,8.33-35,18.11-47.12,33.14-9.68,12.05-15.31,27-19.83,40l-.49,1.43c-2.15,6.2-4.37,12.62-7.83,18.39-5.94,9.89-15.92,18.31-28.87,24.33-11.51,5.36-24,8.37-36,11.28l-23.85,5.77A1.75,1.75,0,0,1,158.19,361.9Z"></path>
  <path fill="#333" d="M215.29,297a1.34,1.34,0,0,1-1.12-2.07c20-30.91,39.83-51,62.34-63.13,12.8-6.92,26.89-11.37,40.51-15.68,4.42-1.4,9-2.84,13.43-4.34C346,206.52,365.66,198.59,379.2,184c7.59-8.19,13.09-18.18,18.41-27.84a1.34,1.34,0,1,1,2.35,1.29c-5.39,9.81-11,19.95-18.79,28.38-14,15.05-34,23.15-49.86,28.53-4.47,1.51-9.05,3-13.48,4.36-13.5,4.27-27.47,8.68-40.05,15.48-22.1,11.94-41.6,31.71-61.36,62.23A1.36,1.36,0,0,1,215.29,297Z"></path>
  <polygon fill="#f8bb24" points="567.51 45.78 578.57 91.98 622.78 100.48 579.13 112.39 566.38 157.74 553.62 111.26 513.37 103.32 555.89 92.83 567.51 45.78"></polygon>
  <path fill="#333" d="M566.38,158.41h0c-.6,0-1.13-.07-1.29-.65l-12.53-45.52-39.44-7.69a1.3,1.3,0,0,1-1.08-1.24,1.32,1.32,0,0,1,1-1.31l41.73-10.29,11.43-46.27a1.35,1.35,0,0,1,1.3-1h0a1.35,1.35,0,0,1,1.3,1l10.86,45.37L623,99.16a1.35,1.35,0,0,1,.1,2.62l-42.92,11.7-12.55,44.29C567.5,158.35,567,158.41,566.38,158.41Zm-46.81-55.24,34.31,6.77a1.33,1.33,0,0,1,1,1l11.48,41.83L577.84,112a1.32,1.32,0,0,1,.94-.93l38.07-10.39L578.31,93.3a1.33,1.33,0,0,1-1-1l-9.77-40.83-10.3,41.69a1.34,1.34,0,0,1-1,1Z"></path>
  <polygon fill="#333" points="248.42 7.69 255.95 39.16 286.07 44.96 256.34 53.07 247.65 83.96 238.96 52.29 211.54 46.89 240.51 39.74 248.42 7.69"></polygon>
  <polygon fill="#fff" points="168.41 166.03 103.81 128.69 155.73 122.64 168.41 166.03"></polygon>
  <path fill="#333" d="M168.41,167.37a1.35,1.35,0,0,1-.67-.18l-64.6-37.34a1.34,1.34,0,0,1-.64-1.43,1.32,1.32,0,0,1,1.16-1.06l51.92-6a1.33,1.33,0,0,1,1.44,1l12.62,43.21a1.23,1.23,0,0,1,.12.55,1.34,1.34,0,0,1-1.34,1.34ZM108,129.55l58.19,33.64L154.76,124.1Z"></path>
  <polygon fill="#fff" points="47.3 64.95 118.95 179.77 152.97 123.15 47.3 64.95"></polygon>
  <path fill="#333" d="M119,181.11a1.33,1.33,0,0,1-1.14-.63L46.17,65.66A1.34,1.34,0,0,1,48,63.77L153.61,122a1.33,1.33,0,0,1,.65.82,1.34,1.34,0,0,1-.14,1l-34,56.62a1.33,1.33,0,0,1-1.13.65ZM51.17,68.61,118.93,177.2l32.17-53.54Z"></path>
  <polygon fill="#fff" points="152.97 123.15 203.68 108.9 47.3 64.95 152.97 123.15"></polygon>
  <path fill="#333" d="M153,124.5a1.34,1.34,0,0,1-.65-.17L46.66,66.12a1.34,1.34,0,0,1,1-2.46l156.37,44a1.34,1.34,0,0,1,0,2.58l-50.71,14.26A1.49,1.49,0,0,1,153,124.5ZM58.15,69.39l95,52.32,45.59-12.81Z"></path>
  <path fill="#333" d="M47.3,65l115.39,55.6,5.67,44.84,0,.64s-16.15-42.18-17.2-43.4C148.29,119.24,47.3,65,47.3,65Z"></path>
  <path fill="#333" d="M168.41,167.37a1.33,1.33,0,0,1-1.25-.86c-6.23-16.27-15.83-41-17-43C147,120.53,86.64,87.62,46.67,66.13a1.34,1.34,0,0,1,1.22-2.39l115.39,55.6a1.34,1.34,0,0,1,.75,1l5.66,44.84a.17.17,0,0,1,0,.07l.05.65a1.34,1.34,0,0,1-1.05,1.4ZM97.48,90.61c26.21,14.32,53.14,29.28,54.74,31.14.85,1,7.72,18.53,13.52,33.6l-4.28-33.91Z"></path>
  <circle cx="750.73" cy="539.41" r="22.08" fill="#f8bb24" transform="rotate(-31.91 750.712 539.397)"></circle>
  <path fill="#333" d="M750.71,562.83h0a23.5,23.5,0,0,1-23.15-20.13,23.42,23.42,0,0,1,19.89-26.48,24.7,24.7,0,0,1,3.32-.23A23.42,23.42,0,0,1,754,562.6,24.55,24.55,0,0,1,750.71,562.83Zm0-44.16a20.74,20.74,0,1,0,20.5,17.83A20.66,20.66,0,0,0,750.76,518.67Z"></path>
  <path fill="#333" d="M756.64 539.41a1.57 1.57 0 0 1-1.34-1.54l-.23-8.72c0-.74.56-1.74 1.3-1.74h0a1.58 1.58 0 0 1 1.34 1.55l.23 8.72c0 .74-.56 1.73-1.3 1.73ZM743.26 539.41a1.38 1.38 0 0 1-1.34-1.35l-.24-8.32a1.29 1.29 0 0 1 1.31-1.33h0a1.29 1.29 0 0 1 1.34 1.23l.23 8.38a1.34 1.34 0 0 1-1.3 1.39ZM750.07 552.55c-11.3 0-14.62-11-14.65-11.07a1.34 1.34 0 0 1 2.58-.75h0c.11.38 2.81 9.13 12.07 9.13h.42A11.88 11.88 0 0 0 762 540.63a1.34 1.34 0 0 1 2.63.54c0 .11-2.36 11-14.09 11.37Z"></path>
  <path fill="#ffb3b3" d="M508.21,313.72s10.28-21.35,26.48-12.65.79,55.33-25.29,52.57S508.21,313.72,508.21,313.72Z"></path>
  <path fill="#333" d="M511.62,355.1a23.69,23.69,0,0,1-2.37-.13c-5.94-.63-9.92-3-11.84-7.12-5.45-11.67,8.5-33.1,9.63-34.8.68-1.38,7.91-15.41,20-15.41a17.69,17.69,0,0,1,8.33,2.24c6.77,3.64,9.09,13.41,6,25.52C537.78,339.7,526.93,355.1,511.62,355.1ZM527,300.33c-10.71,0-17.51,13.83-17.58,14a1.4,1.4,0,0,1-.1.16c-.14.22-14.4,21.72-9.47,32.26,1.5,3.23,4.67,5,9.69,5.58a18.12,18.12,0,0,0,2.08.11c13.26,0,23.7-13.92,27.15-27.67,2.69-10.68.84-19.51-4.71-22.49A14.9,14.9,0,0,0,527,300.33Z"></path>
  <path fill="#998fef" d="M599.91,777.3s15.81-325.24-49.8-349-204,2.37-246.65-7.9-154.26-26.13-201.7,13.4S63.14,774.76,63.14,774.76Z"></path>
  <path fill="#333" d="M599.91,778.41h0L63.13,776a1.3,1.3,0,0,1-1.33-1.25c0-.75-2.16-76.29,1.52-155.71,5-106.94,17.61-169.59,37.59-186.23,20.46-17.06,54.32-25.7,100.64-25.7,38.55,0,78.08,6.22,102.23,12,6.93,1.67,17.05,2.48,30.93,2.48,16.09,0,35.63-1.06,56.32-2.19,24.58-1.34,50-2.73,74.86-2.73,37.64,0,65.34,3.4,84.67,10.39,15.43,5.58,27.65,27.61,36.32,65.49,6.87,30,11.6,70.07,14.08,119.08,4.2,83.37.33,164.79.29,165.6A1.24,1.24,0,0,1,599.91,778.41Zm-535.47-5L598.63,776c.47-10.72,3.55-86.65-.36-164.19-5.53-109.67-22.34-172.66-48.62-182.16-19-6.88-46.44-10.22-83.76-10.22-24.78,0-50.17,1.38-74.72,2.72-20.72,1.13-40.3,2.2-56.46,2.2-14.09,0-24.42-.84-31.56-2.56a468.05,468.05,0,0,0-101.6-11.95c-45.67,0-79,8.44-98.93,25.08C83.53,450.78,70.87,514.51,66,619.17,62.59,692.78,64.18,763.09,64.44,773.42Z"></path>
  <path fill="#ffb3b3" d="M516.9,250.47c-1.47-63.41-77.47-88.53-77.47-88.53-1.57,51.38-69.57,83-69.57,83l-52.53,52.22c-5.67-8-20.25-24.61-42.51-21.56-29.17,4-38.89,55.47-9.72,77.77,13.54,10.36,26,13.06,35.4,13l-10.24,52.76c13.43,51.38,100.16,63.76,100.16,63.76l.46-.85,16.93-31.56c112.26,15.8,106.72-101.19,106.72-110.67S517.7,284.47,516.9,250.47Z"></path>
  <path fill="#333" d="M390.43,484.23l-.19,0a217.26,217.26,0,0,1-45.37-12.69c-31-12.62-50.31-30.61-55.91-52a1.31,1.31,0,0,1,0-.59l9.94-51.19c-11.85-.3-23.48-4.75-34.6-13.25-17.39-13.31-20.75-36.05-16.35-52.68C252,286.28,262,276,274.64,274.27a41.48,41.48,0,0,1,5.54-.38c18.5,0,31,12.74,37.31,21.22L368.92,244a1.22,1.22,0,0,1,.38-.26,176.38,176.38,0,0,0,33.94-22.09c15.46-12.89,34.05-33.72,34.85-59.74a1.35,1.35,0,0,1,1.76-1.24,155.21,155.21,0,0,1,38.56,20.69c25.45,18.84,39.22,42.73,39.83,69.09.56,23.8-.8,53-1.7,72.27-.37,8-.67,14.27-.67,17.1,0,.31,0,.74,0,1.28.54,38.66-9.55,70.56-28.43,89.71-14.75,15-34.86,22.61-59.77,22.61h0A145.37,145.37,0,0,1,408.55,452l-16.94,31.55A1.33,1.33,0,0,1,390.43,484.23Zm-98.8-65.14c6.93,25.82,33.3,41.41,54.26,49.94a216.63,216.63,0,0,0,43.8,12.38h0l16.94-31.57a1.34,1.34,0,0,1,1.37-.69,142.56,142.56,0,0,0,19.69,1.45c24.16,0,43.63-7.32,57.86-21.75,18.37-18.63,28.19-49.78,27.65-87.72,0-.56,0-1,0-1.32,0-2.89.28-8.9.67-17.22.9-19.27,2.25-48.38,1.7-72.09-.75-32.18-21.45-54.17-38.68-66.95a155,155,0,0,0-36.19-19.74c-1.29,20.79-13.62,41.47-35.77,59.93a180.84,180.84,0,0,1-34.27,22.32l-52.38,52.05a1.34,1.34,0,0,1-2-.17c-5.63-8-17.79-21.37-36.05-21.37a37.91,37.91,0,0,0-5.18.36c-11.53,1.58-20.68,11.12-24.48,25.51-4.17,15.78-1,37.31,15.39,49.87,11,8.44,22.56,12.41,34.25,12.41l.33-.31h0c.4,0,.78.49,1,.79a1.71,1.71,0,0,1,.28,1.27Z"></path>
  <path fill="#333" d="M409.22 449.38 392 481.83c-43.36-13.11-60.12-82.2-60.12-82.2C366.7 443.23 409.22 449.38 409.22 449.38ZM415.56 240.7a1.34 1.34 0 0 1-.43-2.61c4.43-1.48 9.49-3.42 13.53-6.68s6.73-7.84 7-12.25a28.39 28.39 0 0 0-.36-5 26.55 26.55 0 0 1-.32-6.26c.56-5.53 4.13-9.78 7.59-13.9a53.75 53.75 0 0 0 4.83-6.38c5.77-9.54 3.49-23.1-5.08-30.22a1.34 1.34 0 0 1 1.71-2.07c9.55 7.94 12.1 23.05 5.67 33.68a55.35 55.35 0 0 1-5.08 6.72c-3.34 4-6.49 7.73-7 12.44a24.12 24.12 0 0 0 .31 5.64 30.71 30.71 0 0 1 .38 5.54c-.28 5.17-3.17 10.35-8 14.2-4.37 3.53-9.71 5.58-14.36 7.13A1.23 1.23 0 0 1 415.56 240.7ZM305.7 337.41a1.53 1.53 0 0 1-1.34-1.52c-.35-14.47-8.79-29.31-19.64-34.36-4.32-2-10.9-3.35-17.64 2.05a1.36 1.36 0 0 1-1.68-2.14A18.7 18.7 0 0 1 285.86 299c11.71 5.45 20.81 21.41 21.18 36.83a1.53 1.53 0 0 1-1.31 1.58Z"></path>
  <path fill="#333" d="M280.54,321.55a1.34,1.34,0,0,1-.67-2.51l14.86-8.57a1.34,1.34,0,1,1,1.34,2.32l-14.86,8.58A1.35,1.35,0,0,1,280.54,321.55Z"></path>
  <rect width="7.38" height="287.63" x="702.51" y="400.45" fill="#333"></rect>
  <path fill="#fff" d="M686.85,406.28h0a95.6,95.6,0,0,1-21.06-2.34c-32.52-7.34-59.06-30.83-74.74-66.14C576,304,572.81,263,582,222.48,599,147,654.72,92.23,714.48,92.23a95.63,95.63,0,0,1,21.07,2.34C801,109.34,838.6,190.74,819.37,276,802.35,351.51,746.61,406.28,686.85,406.28Zm27.63-284.55c-45.36,0-90,46.1-103.75,107.24-7.76,34.4-5.18,68.81,7.27,96.87,11.79,26.57,31.06,44.09,54.27,49.32a66.6,66.6,0,0,0,14.57,1.62c45.36,0,90-46.09,103.75-107.24,15.66-69.43-12-135-61.54-146.19A66.53,66.53,0,0,0,714.48,121.73Z"></path>
  <path fill="#333" d="M686.85,407.62h0a97.36,97.36,0,0,1-21.35-2.37c-33-7.44-59.82-31.2-75.67-66.9-15.12-34.08-18.38-75.33-9.17-116.17C597.8,146.1,654.09,90.89,714.48,90.89a97.52,97.52,0,0,1,21.36,2.37c66.18,14.93,104.23,97.05,84.84,183.07C803.52,352.41,747.24,407.62,686.85,407.62Zm27.63-314c-59.15,0-114.34,54.34-131.23,129.2-9.07,40.28-5.88,80.93,9,114.49,15.5,34.91,41.71,58.13,73.81,65.37a94.49,94.49,0,0,0,20.76,2.31h0c59.15,0,114.33-54.34,131.21-129.2C837.13,191.16,800,110.48,735.25,95.88A94.65,94.65,0,0,0,714.48,93.57ZM686.85,378.12h0A67.44,67.44,0,0,1,672,376.47c-23.64-5.33-43.24-23.11-55.21-50.09-12.56-28.33-15.17-63-7.35-97.7,13.92-61.74,59.09-108.29,105.06-108.29A68.18,68.18,0,0,1,729.35,122c50.31,11.35,78.37,77.65,62.55,147.79C778,331.57,732.82,378.12,686.85,378.12Zm27.63-255c-44.74,0-88.79,45.66-102.45,106.2-7.69,34.12-5.14,68.22,7.2,96,11.61,26.18,30.55,43.43,53.33,48.56a64.71,64.71,0,0,0,14.28,1.59c44.76,0,88.79-45.65,102.44-106.2,15.5-68.7-11.65-133.56-60.52-144.58A65.31,65.31,0,0,0,714.48,123.07Z"></path>
  <polygon fill="#333" points="649.86 689.13 643.28 685.8 705.49 562.68 770.29 684.51 763.78 687.97 705.66 578.7 649.86 689.13"></polygon>
  <path fill="#ffb3b3" d="M223.74,574.81c-1.55-17.24,3.55-58,7.53-85.88,5.7-11.93,10.64-26.27,9.63-42.72-2.25-36.6-47.05-78.9-47.05-78.9l-15.3-26a1.6,1.6,0,0,1-.13-.3L169.84,326l-.5.2-49-107.38A22.34,22.34,0,0,0,79.7,237.33L129,345.45c-.51.29-1,.58-1.55.89L57.26,254.25a22.34,22.34,0,0,0-35.52,27.09l68.08,89.25C70.2,384,50.6,397.67,29.69,409.18c-6.94,3.89-15.42-4.49-19.14,1.87l9.18,19.6L65.2,514.49c-1.47,43.94-5,106.66-3.38,168.72,53.67,4.48,107.78,3.88,161.85-.15C221.62,637.76,225.11,590.11,223.74,574.81Z"></path>
  <path fill="#333" d="M139.06,687.67c-26.47,0-52.5-1-77.35-3.13a1.34,1.34,0,0,1-1.23-1.3c-1.32-49.3.67-99.25,2.27-139.38.41-10.33.8-20.09,1.1-29.05l-45.3-83.52,0-.07-9.18-19.6a1.35,1.35,0,0,1,.05-1.25,6,6,0,0,1,5.55-3.14,22,22,0,0,1,5,.82,23.58,23.58,0,0,0,5.37.87A7.49,7.49,0,0,0,29,408c18.53-10.2,36.28-22.32,53.45-34l5.4-3.69L20.68,282.15a23.67,23.67,0,0,1,37.65-28.71l67.86,89L78.48,237.88A23.7,23.7,0,0,1,100,204.38a23.77,23.77,0,0,1,21.55,13.85l48.56,106.43a1.34,1.34,0,0,1,.88.65l8.58,15.08a2,2,0,0,1,.11.26l0,.05,15.18,25.77c3.25,3.09,45.12,43.61,47.33,79.66,1.11,18.11-5,33.29-9.67,43.19-4.25,29.77-9,68.66-7.49,85.37.59,6.61.29,19-.09,34.76-.51,21.23-1.15,47.64,0,73.55a1.34,1.34,0,0,1-1.25,1.4C194.59,686.57,166.09,687.67,139.06,687.67ZM63.13,682c24.42,2,50,3,75.93,3,26.56,0,54.55-1.07,83.21-3.17-1.09-25.58-.47-51.52,0-72.44.37-15.64.67-28,.09-34.45-1.52-17,3.26-56.26,7.55-86.19a1.25,1.25,0,0,1,.11-.39c4.6-9.63,10.59-24.46,9.5-42.06-2.19-35.64-46.18-77.59-46.63-78a1.09,1.09,0,0,1-.23-.29l-15.3-26a.56.56,0,0,1-.05-.08c-.06-.13-.11-.23-.15-.33l-8-14.12a1.34,1.34,0,0,1-1-.78l-49-107.37A21.08,21.08,0,0,0,100,207.06a21,21,0,0,0-19.09,29.71l49.33,108.12a1.34,1.34,0,0,1-.55,1.72l-.48.28c-.35.19-.7.4-1.06.61a1.34,1.34,0,0,1-1.75-.34L56.19,255.07a21,21,0,0,0-33.38,25.46l68.08,89.25a1.34,1.34,0,0,1,.25,1,1.31,1.31,0,0,1-.57.89L84,376.18c-17.23,11.76-35,23.92-53.67,34.18a10.13,10.13,0,0,1-5.05,1.24,25.91,25.91,0,0,1-6-.94,20.3,20.3,0,0,0-4.35-.74,3.28,3.28,0,0,0-2.85,1.24L20.93,430l45.45,83.81a1.24,1.24,0,0,1,.16.68c-.3,9.07-.69,19-1.11,29.43C63.84,583.73,61.88,633.15,63.13,682Z"></path>
  <path fill="#ffb3b3" d="M109.67,447a22.3,22.3,0,0,1-18.39-6.07L34.09,385.78a22.33,22.33,0,1,1,31-32.16l57.19,55.13A22.35,22.35,0,0,1,109.67,447Z"></path>
  <path fill="#333" d="M106.78,448.5a23.55,23.55,0,0,1-16.43-6.63L33.16,386.74A23.67,23.67,0,0,1,66,352.66l57.19,55.13a23.68,23.68,0,0,1-13.37,40.52A24.06,24.06,0,0,1,106.78,448.5ZM49.59,348.71A21,21,0,0,0,35,384.81l57.19,55.13a20.9,20.9,0,0,0,14.57,5.88,20.44,20.44,0,0,0,2.71-.18,21,21,0,0,0,11.86-35.92L64.16,354.59A20.92,20.92,0,0,0,49.59,348.71Z"></path>
  <path fill="#ffb3b3" d="M69.49,460.32a18.55,18.55,0,0,1-15.28-5L7.07,410.12a18.61,18.61,0,1,1,25.75-26.87L80,428.43a18.61,18.61,0,0,1-10.47,31.89Z"></path>
  <path fill="#333" d="M67.08,461.81a19.87,19.87,0,0,1-13.8-5.54L6.14,411.09a20,20,0,0,1-.6-28.21,20,20,0,0,1,28.2-.6l47.14,45.18a19.95,19.95,0,0,1-11.22,34.19A20.19,20.19,0,0,1,67.08,461.81ZM19.94,379.42A17.26,17.26,0,0,0,8,409.15l47.14,45.18a17.18,17.18,0,0,0,11.95,4.8,18.54,18.54,0,0,0,2.23-.14,17.08,17.08,0,0,0,10.24-5.18A17.28,17.28,0,0,0,79,429.4L31.89,384.22A17.21,17.21,0,0,0,19.94,379.42Z"></path>
  <path fill="#ffb3b3" d="M237.12,426.69c-17.69-49.62-40.18-54.21-46.12-56.57-8.64-3.43-90.27-6.43-103.54,2.18s-8.69,34.27,14.86,37.47,61,2.72,61,2.72"></path>
  <path fill="#333" d="M237.12,428a1.33,1.33,0,0,1-1.26-.89c-16.21-45.45-36.24-52.53-43.77-55.19-.61-.22-1.14-.4-1.58-.58-7.76-3.08-89.19-6.46-102.32,2.05-5.41,3.51-7.86,10.44-6.25,17.67s7.88,15.76,20.56,17.48c23.2,3.15,60.46,2.84,60.83,2.84h0a1.24,1.24,0,0,1,1.34,1.2,1.28,1.28,0,0,1-1.32,1.29c-.38,0-37.84.41-61.23-2.77-14-1.9-21-11.3-22.82-19.44-1.86-8.33,1.05-16.39,7.41-20.51,8.07-5.24,37.44-5.89,54.24-5.82,23.23.1,45.9,1.68,50.53,3.52.41.16.91.34,1.48.54,7.87,2.78,28.77,10.17,45.4,56.82a1.34,1.34,0,0,1-.81,1.72A1.41,1.41,0,0,1,237.12,428Z"></path>
  <path fill="#333" d="M148.55 500.17a1.35 1.35 0 0 1-1.21-.74c-14-28-7.16-51.15 1.08-65.63a85.63 85.63 0 0 1 21.43-24.87 1.34 1.34 0 0 1 1.58 2.17 84.32 84.32 0 0 0-20.72 24.11c-11.47 20.21-11.8 41.41-1 63a1.33 1.33 0 0 1-.59 1.8A1.46 1.46 0 0 1 148.55 500.17ZM646.33 478.68l0 299.55a17.63 17.63 0 0 1-16.5 17.53L481.18 807.69A17.8 17.8 0 0 1 461.83 790V574.71l0-84.12a17.57 17.57 0 0 1 16.51-17.47L627 461.2A17.57 17.57 0 0 1 646.33 478.68Z"></path>
  <path fill="#ffb3b3" d="M702,807c.59-2.89,1.1-12.3,1.52-14.79C712,742.5,702.82,702,695,685.79l.9.23c-9.28-23.46-23.75-40-26.16-48.32s5.3-61.18-6.23-66.36c-7.83-3.49-12.83-2.51-17.19,3.41v75.33c-1.12-.58-2.25-1.15-3.37-1.71a20.83,20.83,0,0,0-6.87-3.89l-7.94-2.66c-3.11-1.19-6.12-2.2-9-3l-63.28-21.18a57.77,57.77,0,0,0-14.47-2.88l-71.81-5a20.73,20.73,0,1,0-2.9,41.36l71.8,5a16.46,16.46,0,0,1,4.22.84l35.38,11.84c0,.21-.09.41-.13.61l-26.36-5.92a21.68,21.68,0,0,0-4.32-.5l-83.13-.89a20.73,20.73,0,1,0-.44,41.46l80.93.87,23.09,5.18c-.17.65-.35,1.3-.53,1.95l-22.76-4.25A20.17,20.17,0,0,0,541,707l-77.29-1.58a20.73,20.73,0,1,0-.85,41.45l75.59,1.55,17.45,3.25-.24.85-9.34-1.38a15.56,15.56,0,0,0-2.37-.18l-64.13.06a16.12,16.12,0,0,0-1.3,32.19c.44,0,.88.06,1.33.06l60.66-.05a1.61,1.61,0,0,0,.72,1.17c3.81,2.31,27.53,22.45,33.82,26C602.94,811.24,694.69,808.11,702,807Z"></path>
  <path fill="#333" d="M587.65,812.41h0c-5.13,0-9.37-.33-12.6-.43-.22,0-.43-.2-.62-.31-3.77-2.13-13.23-9.81-21.58-16.53-5.54-4.45-10.76-8.69-12.28-9.6a2.76,2.76,0,0,1-1-1l-59.73,0c-.5,0-1,0-1.43-.06a17.47,17.47,0,0,1,1.4-34.88l52.48,0-69.47-1.42a22,22,0,0,1-21.61-22.52,22.21,22.21,0,0,1,18-21.24,22.08,22.08,0,0,1,4.63-43.66h.24l83.12.89a22.15,22.15,0,0,1,4.6.54l6.69,1.5-16.29-5.46a15.42,15.42,0,0,0-3.89-.77l-71.81-5a22.1,22.1,0,0,1-20.47-23.57,22.13,22.13,0,0,1,22-20.52c.52,0,1,0,1.56,0l71.81,5a59,59,0,0,1,14.81,3l63.28,21.18c2.82.79,5.89,1.82,9.05,3l7.88,2.64a21.93,21.93,0,0,1,7.19,4l1.29.65V574.75a1.34,1.34,0,0,1,.26-.8c3-4.07,6.3-6,10.4-6a20.94,20.94,0,0,1,8.42,2.14c8,3.57,7.82,24.1,6.87,48.56-.34,8.67-.63,16.16.1,18.65,1,3.26,4,8.09,7.88,14.21,5.37,8.48,12.72,20.08,18.17,33.82a1.26,1.26,0,0,1,.18.66,1.36,1.36,0,0,1-.29.84c6.86,15.55,16.45,55.21,7.91,105.54-.17,1-.37,3.48-.59,6.06-.29,3.48-.59,7.09-.93,8.78-.12.55-.56,1.25-1.11,1.34C695.56,809.61,624,812.41,587.65,812.41ZM575.47,809c3.16.1,7.26.14,12.18.14,34,0,102.55-2.35,113.23-3.41.26-1.82.51-4.82.74-7.52s.42-5.13.62-6.29c8.75-51.55-1.7-91.61-8.45-105.58a1.35,1.35,0,0,1,.17-1.44l0,0c-5.28-12.84-12-23.38-17.36-31.92-4-6.29-7.13-11.26-8.19-14.89-.84-2.91-.56-10.23-.2-19.51.66-17.07,1.66-42.88-5.29-46a18.39,18.39,0,0,0-7.32-1.9c-3.1,0-5.58,1.4-8,4.52v74.89a1.33,1.33,0,0,1-.64,1.14,1.36,1.36,0,0,1-1.31,0c-1.12-.58-2.24-1.14-3.35-1.69a1.07,1.07,0,0,1-.28-.19,19.46,19.46,0,0,0-6.43-3.64l-7.94-2.66q-4.71-1.8-8.93-3l-63.34-21.2a56.29,56.29,0,0,0-14.14-2.81l-71.81-5c-.46,0-.93,0-1.38,0a19.37,19.37,0,0,0-14.6,32.11,19.2,19.2,0,0,0,13.26,6.62l71.81,5a18.46,18.46,0,0,1,4.55.91l35.38,11.84a1.35,1.35,0,0,1,.88,1.57l-.13.61a1.34,1.34,0,0,1-1.61,1l-26.36-5.92a20.26,20.26,0,0,0-4-.47l-83.33-.89a19.45,19.45,0,0,0-19.39,19.18,19.41,19.41,0,0,0,19.18,19.6l80.94.87a1.33,1.33,0,0,1,.28,0L568,708.3a1.34,1.34,0,0,1,1,1.66l-.53,1.94a1.34,1.34,0,0,1-1.54,1l-22.77-4.25a19.68,19.68,0,0,0-3.16-.32l-77.29-1.58a19.4,19.4,0,0,0-14.36,32.85,19.17,19.17,0,0,0,13.56,5.92l75.6,1.54.21,0,17.46,3.26a1.34,1.34,0,0,1,.89.61,1.36,1.36,0,0,1,.15,1.08l-.24.84a1.35,1.35,0,0,1-1.49.95l-9.33-1.38a15.61,15.61,0,0,0-2.17-.15l-64.14.05a14.78,14.78,0,0,0-1.19,29.52c.39,0,.79.33,1.19.33l60.69.24h0c.65,0,1.21.18,1.32.81,0,.21.09.13.09.13,1.67,1,6.48,4.81,12.57,9.7C562.2,799.22,571.69,806.78,575.47,809ZM543.05,705.74q.81.09,1.62.24l4.76.89-5-1.11Z"></path>
  <line x1="642.94" x2="667.3" y1="648.37" y2="663.32" fill="#ffb3b3"></line>
  <path fill="#333" d="M667.3,664.66a1.29,1.29,0,0,1-.7-.2l-24.36-14.94a1.35,1.35,0,0,1-.44-1.85,1.33,1.33,0,0,1,1.84-.44L668,662.18a1.34,1.34,0,0,1,.44,1.84A1.31,1.31,0,0,1,667.3,664.66Z"></path>
  <path fill="#fff" d="M613.93 518.41c-9.52 0-17.28-9.44-17.29-21a23.38 23.38 0 0 1 5-14.76 15.81 15.81 0 0 1 12.3-6.28c9.54 0 17.3 9.41 17.32 21a23.51 23.51 0 0 1-5 14.78A15.85 15.85 0 0 1 614 518.41Zm0-39.36a13.2 13.2 0 0 0-10.24 5.27 20.73 20.73 0 0 0-4.33 13.06c0 10.08 6.64 18.29 14.64 18.29v0a13.2 13.2 0 0 0 10.21-5.27 20.65 20.65 0 0 0 4.35-13.06C628.52 487.25 622 479.05 613.91 479.05ZM615.21 563.41c-7.82 0-14.19-7.93-14.2-17.39a19.41 19.41 0 0 1 4-12.17 13.06 13.06 0 0 1 10.12-5.2c7.84 0 14.21 7.9 14.22 17.36s-6.35 16.4-14.17 17.4Zm0-32.13a10.36 10.36 0 0 0-8.06 4.15 16.45 16.45 0 0 0-3.56 10.36c0 8 5.4 14.48 11.4 14.48v1.35l.13-1.35c6.34 0 11.56-6.52 11.55-14.51S621.54 531.28 615.2 531.28Z"></path>
  <path fill="#cc3b3b" d="M644.4,281.08s-5.67-19.83-2-41.68l.51-.11a64.13,64.13,0,1,1,76.56,70.83,48.22,48.22,0,0,1-7.88,1.31c-59.89,5.26-89.42-19.83-89.42-19.83C638.33,291.19,644.4,281.08,644.4,281.08Z"></path>
  <path fill="#333" d="M695.34,313.49c-48.93,0-73.06-20-74.06-20.87a1.34,1.34,0,0,1,.83-2.36c13.44-.34,19.46-7.5,20.83-9.42a106.89,106.89,0,0,1-1.89-41.66,1.37,1.37,0,0,1,.62-.92,65.47,65.47,0,1,1,78.08,73.17,50.32,50.32,0,0,1-8.07,1.33C706.17,313.25,700.67,313.49,695.34,313.49ZM625.9,292.67c7.73,5.18,30.93,18.14,69.44,18.14,5.25,0,10.67-.24,16.11-.72a46.33,46.33,0,0,0,7.66-1.27h.07a62.8,62.8,0,1,0-75-69.36,1.35,1.35,0,0,1-.65,1c-3.28,21,2.06,40.07,2.12,40.26a1.36,1.36,0,0,1-.14,1.06C645.31,282.17,639.87,291,625.9,292.67Z"></path>
  <path fill="#fff" d="M724.67,215.45a22.37,22.37,0,0,0-19.15,11.72,22.37,22.37,0,0,0-41.58,12c.26,12.39,18.7,28.44,43,54.21,21.94-24.44,40.93-43.55,40.67-56A22.43,22.43,0,0,0,724.67,215.45Z"></path>
  <path fill="#333" d="M706.9 294.71a1.4 1.4 0 0 1-1-.42c-4.79-5.09-9.27-9.71-13.6-14.18-17.77-18.34-29.5-30.45-29.72-40.92a23.78 23.78 0 0 1 23.29-24.28h.49a23.52 23.52 0 0 1 19.1 9.76 23.76 23.76 0 0 1 19.16-10.56h.5a23.91 23.91 0 0 1 23.77 23.3c.24 11.38-14.42 27.53-33 48-2.62 2.88-5.31 5.85-8 8.89a1.37 1.37 0 0 1-1 .45Zm-20.52-77.12h-.44a21.09 21.09 0 0 0-20.66 21.53c.2 9.42 12.27 21.87 29 39.11 4 4.16 8.2 8.46 12.63 13.15q3.6-4 7.07-7.82c18.15-20 32.5-35.81 32.28-46.12a21 21 0 0 0-39.53-9.64 1.35 1.35 0 0 1-1.15.7 1.27 1.27 0 0 1-1.17-.65A20.92 20.92 0 0 0 686.38 217.59ZM509.24 339.76a1.33 1.33 0 0 1-1.19-.73l-4.75-9.26a1.34 1.34 0 1 1 2.38-1.22l4.75 9.26a1.33 1.33 0 0 1-.58 1.8A1.2 1.2 0 0 1 509.24 339.76ZM526 326.63a1.36 1.36 0 0 1-.85-.3l-10.47-8.55a1.34 1.34 0 0 1 1.7-2.08l10.47 8.55a1.35 1.35 0 0 1 .19 1.89A1.33 1.33 0 0 1 526 326.63Z"></path>
  <path fill="#fff" d="M514.33,297.41s-10.53-13.06-30.53-13S452,313.06,452,313.06,482,335.71,514.33,297.41Z"></path>
  <path fill="#333" d="M474 321.05h0a40.2 40.2 0 0 1-22.8-6.92 1.11 1.11 0 0 1-.43-1.41c.49-1.2 12.33-29.31 33-29.31H484c20.31 0 31 12.78 31.42 13.33a1.23 1.23 0 0 1 0 1.62C502.59 313.47 488.69 321.05 474 321.05Zm-20.31-8.65A38.78 38.78 0 0 0 474 318.28c13.54 0 26.5-7.17 38.51-21.06A39.94 39.94 0 0 0 484 285.41h-.16C467 285.41 456 307.45 453.72 312.4ZM443.56 337.21a1.34 1.34 0 0 1-1-.5c-12.89-15.88-9.33-39.28-9.18-40.27a1.34 1.34 0 0 1 1.54-1.11 1.33 1.33 0 0 1 1.11 1.53c0 .23-3.51 23.22 8.61 38.16a1.34 1.34 0 0 1-1 2.19ZM349.44 331.48a1.4 1.4 0 0 1-.73-.21 1.35 1.35 0 0 1-.39-1.86l5.68-8.72a1.34 1.34 0 0 1 2.25 1.46l-5.68 8.72A1.34 1.34 0 0 1 349.44 331.48ZM334.14 316.69a1.34 1.34 0 0 1-.74-2.46l11.3-7.42a1.34 1.34 0 1 1 1.47 2.24l-11.29 7.42A1.36 1.36 0 0 1 334.14 316.69Z"></path>
  <path fill="#fff" d="M348.61,288.83s10.89-12.72,30.78-10.58S409,310.83,409,310.83,376.84,330.26,348.61,288.83Z"></path>
  <path fill="#333" d="M390.47 316.72c-11.17 0-27.69-4.7-43-27.14a1.32 1.32 0 0 1 .09-1.62c.39-.46 9.87-11.3 27.33-11.3a42.18 42.18 0 0 1 4.61.26c20.53 2.2 30.3 32.23 30.7 33.5a1.34 1.34 0 0 1-.58 1.56A39.86 39.86 0 0 1 390.47 316.72ZM350.33 289C364.78 309.66 380.1 314 390.47 314a38.81 38.81 0 0 0 16.84-3.85c-1.91-5.29-11.32-28.8-28.07-30.61a42 42 0 0 0-4.32-.23A35.45 35.45 0 0 0 350.33 289ZM497.39 305.74a14.5 14.5 0 1 0-15.22 13.72A14.5 14.5 0 0 0 497.39 305.74Z"></path>
  <ellipse cx="381.63" cy="299.62" fill="#333" rx="14.49" ry="14.5" transform="rotate(-81.2 381.667 299.624)"></ellipse>
  <path fill="#333" d="M486.92 258.85c.19-3.75-4.67-7.05-10.87-7.37s-11.38 2.46-11.57 6.2 4.67 7.05 10.87 7.37S486.73 262.59 486.92 258.85ZM404.91 254.6c.2-3.75-4.67-7-10.87-7.37s-11.37 2.46-11.57 6.2 4.68 7.05 10.87 7.37S404.72 258.34 404.91 254.6ZM435.82 377.36a72 72 0 0 1-21.73-3.45 73.9 73.9 0 0 1-20.69-10.1 1.34 1.34 0 1 1 1.61-2.14c.31.23 31.35 23.13 66.39 7.56a1.34 1.34 0 0 1 1.09 2.45A65.16 65.16 0 0 1 435.82 377.36Z"></path>
  <path fill="#333" d="M390.51 370.79a1.32 1.32 0 0 1-.6-.14 1.35 1.35 0 0 1-.6-1.8L396 355.43a1.34 1.34 0 1 1 2.4 1.2l-6.71 13.42A1.32 1.32 0 0 1 390.51 370.79ZM426.4 391.58a1.32 1.32 0 0 1-1.09-.56 1.34 1.34 0 0 1 .31-1.87l10.4-7.38a1.34 1.34 0 1 1 1.55 2.19l-10.39 7.38A1.4 1.4 0 0 1 426.4 391.58ZM471.34 373.14a1.33 1.33 0 0 1-1.23-.81l-5.7-13.08a1.33 1.33 0 0 1 .69-1.76 1.34 1.34 0 0 1 1.77.69l5.7 13.08a1.35 1.35 0 0 1-.7 1.77A1.4 1.4 0 0 1 471.34 373.14Z"></path>
  <path fill="#f8bb24" d="M286.89,404c-7.27,0-13.62-4.11-17.44-11.28-4.95-9.33-4.41-21.33,1.36-29.87a4,4,0,1,1,6.67,4.5c-4.08,6.05-4.46,14.92-.92,21.59,1.39,2.62,4.59,7,10.33,7,11.51,0,23.81-5.28,23.81-20.12,0-13-15.76-16.48-15.92-16.52a4,4,0,1,1,1.66-7.87c7.71,1.62,22.31,8.81,22.31,24.39C318.75,392.67,305.94,404,286.89,404Z"></path>
  <path fill="#333" d="M286.89,405.33c-7.78,0-14.57-4.37-18.62-12-5.18-9.75-4.61-22.31,1.43-31.25a5.36,5.36,0,1,1,8.89,6,20.39,20.39,0,0,0-.84,20.21c1.25,2.35,4.1,6.3,9.14,6.3,10.86,0,22.47-4.93,22.47-18.78,0-11.85-14.71-15.17-14.86-15.21A5.36,5.36,0,0,1,295.6,350a5.88,5.88,0,0,1,1.11.11c8.09,1.71,23.38,9.27,23.38,25.71C320.09,393.47,306.75,405.33,286.89,405.33Zm-12.74-42.92a2.68,2.68,0,0,0-2.23,1.18,28.36,28.36,0,0,0-1.28,28.49c3.57,6.72,9.49,10.57,16.25,10.57,18.25,0,30.52-10.78,30.52-26.83,0-14.72-13.9-21.53-21.25-23.08a2.68,2.68,0,1,0-1.11,5.25c.17,0,17,3.73,17,17.83,0,15.83-13,21.46-25.15,21.46-6.44,0-10-4.84-11.51-7.72-3.77-7.08-3.36-16.53,1-23a2.67,2.67,0,0,0-.73-3.72A2.65,2.65,0,0,0,274.15,362.41Z"></path>
  <path fill="#fff" d="M110.24,821s0-31.28-5.79-38.22S69.71,721.37,107.93,675s110-15,148.24-16.21,98.45-30.11,141.3,25.48S394,805.92,352.3,807.08s-73-19.69-93.81-19.69-77.6,25.48-123.92,7Z"></path>
  <path fill="#333" d="M110.24,822.32a1.36,1.36,0,0,1-.48-.09,1.34,1.34,0,0,1-.86-1.25c0-8.57-1-32-5.48-37.37-3.4-4.08-11.92-19.76-15.06-39.74-2.84-18.09-1.94-44.87,18.53-69.68,14.41-17.46,35.17-26,63.46-26,16.44,0,33.59,2.77,48.71,5.22,12.89,2.09,25.07,4.06,35,4.06q1.07,0,2.1,0c8.6-.26,18.43-2,28.83-3.76,13-2.25,27.76-4.8,42.38-4.8,30.39,0,53,11,71.2,34.56,19.17,24.88,22.66,55,9.56,82.59-11.56,24.34-34.48,41.75-55.76,42.34-1.12,0-2.26,0-3.39,0-23.6,0-44-6.87-60.46-12.4-11.69-3.93-21.78-7.33-30-7.33-5.89,0-15.11,2.17-25.78,4.69-17,4-38.05,9-59.74,9h0c-14.28,0-26.73-2.12-38-6.5l-23.7,26A1.32,1.32,0,0,1,110.24,822.32Zm60.11-171.4c-27.82,0-47.33,7.94-61.39,25-19.83,24-20.71,50-17.95,67.56,3.12,19.81,11.7,35.11,14.47,38.44,4.92,5.89,5.87,27.24,6.06,35.67l22-24.14c.37-.41,1-.21,1.48,0a100.4,100.4,0,0,0,37.9,7h0c21.37,0,42.3-5.28,59.12-9.26,11.28-2.66,20.19-4.94,26.4-4.94,8.66,0,18.94,3.38,30.85,7.39,16.24,5.47,36.45,12.22,59.61,12.22,1.1,0,2.22,0,3.32-.06,20.3-.57,42.26-17.36,53.4-40.82,12.66-26.66,9.28-55.75-9.26-79.81-17.63-22.86-39.58-33.52-69.07-33.52-14.39,0-28.39,2.42-41.92,4.76-10.5,1.82-20.42,3.54-29.2,3.8-10.52.32-23.63-1.8-37.59-4.06C203.61,653.68,186.58,650.92,170.35,650.92Z"></path>
  <path fill="#cc3b3b" d="M378.35,704.45a11.44,11.44,0,0,0-9.81,6,11.47,11.47,0,0,0-21.32,6.15c.14,6.35,9.59,14.57,22,27.78,11.24-12.52,21-22.32,20.84-28.67A11.5,11.5,0,0,0,378.35,704.45Z"></path>
  <path fill="#333" d="M369.24,745.72a1.35,1.35,0,0,1-1-.42c-2.45-2.61-4.74-5-7-7.26-9.21-9.51-15.3-15.79-15.42-21.41a12.87,12.87,0,0,1,12.58-13.11h.26a12.65,12.65,0,0,1,9.77,4.57,12.82,12.82,0,0,1,9.83-5h.27a12.93,12.93,0,0,1,12.84,12.58c.12,6.09-7.09,14-17.07,25-1.34,1.47-2.72,3-4.12,4.55a1.37,1.37,0,0,1-1,.45ZM358.72,706.2h-.21a10.17,10.17,0,0,0-9.94,10.37c.09,4.57,6.2,10.87,14.66,19.6,1.92,2,3.89,4,6,6.23l3.15-3.48c8.84-9.75,16.48-18.16,16.37-23.18a10.21,10.21,0,0,0-10.15-10h-.22a10.17,10.17,0,0,0-8.66,5.31,1.34,1.34,0,0,1-1.15.69,1.36,1.36,0,0,1-1.17-.64A10.07,10.07,0,0,0,358.72,706.2Z"></path>
  <circle cx="155.6" cy="725.49" r="40.83" fill="#d5f49a"></circle>
  <path fill="#333" d="M155.6,767.66a42.18,42.18,0,1,1,42.17-42.17A42.22,42.22,0,0,1,155.6,767.66Zm0-81.67a39.5,39.5,0,1,0,39.49,39.5A39.54,39.54,0,0,0,155.6,686Z"></path>
  <path fill="#333" d="M178.82,748.16H130.61s7.35-24.7,24.4-24.7S178.82,748.16,178.82,748.16Z"></path>
  <circle cx="155.06" cy="706.76" r="13.08" fill="#333" transform="rotate(-67.5 155.059 706.76)"></circle>
  <path fill="#998fef" d="M266.07 699.13H210.22a2.88 2.88 0 0 1 0-5.7h55.85a2.88 2.88 0 0 1 0 5.7ZM261.42 717.48H209.19a2.87 2.87 0 0 1 0-5.7h52.23a2.88 2.88 0 0 1 0 5.7ZM327.09 717.48h-57.4a2.88 2.88 0 0 1 0-5.7h57.4a2.88 2.88 0 0 1 0 5.7ZM300.2 729.91H209.7a2.88 2.88 0 0 1 0-5.7h90.5a2.88 2.88 0 0 1 0 5.7ZM321.4 743.54H209.7a2.88 2.88 0 0 1 0-5.71H321.4a2.88 2.88 0 0 1 0 5.71ZM258.31 757.15H209.7a2.88 2.88 0 0 1 0-5.7h48.61a2.88 2.88 0 0 1 0 5.7Z"></path>
  <path fill="#d5f49a" d="M342.43,1.34H504.82a11,11,0,0,1,11,11V56.43a11,11,0,0,1-11,11H416.25l-13,18L391,67.44H342.43a11,11,0,0,1-11-11V12.36A11,11,0,0,1,342.43,1.34Z"></path>
  <path fill="#333" d="M403.23,86.74h0a1.35,1.35,0,0,1-1.09-.59L390.29,68.78H342.43a12.37,12.37,0,0,1-12.36-12.35V12.36A12.37,12.37,0,0,1,342.43,0H504.82a12.37,12.37,0,0,1,12.36,12.36V56.43a12.37,12.37,0,0,1-12.36,12.35H416.93l-12.62,17.4A1.34,1.34,0,0,1,403.23,86.74ZM342.43,2.68a9.69,9.69,0,0,0-9.68,9.68V56.43a9.69,9.69,0,0,0,9.68,9.67H391a1.33,1.33,0,0,1,1.11.59l11.15,16.37,11.91-16.41a1.35,1.35,0,0,1,1.08-.55h88.57a9.69,9.69,0,0,0,9.68-9.67V12.36a9.69,9.69,0,0,0-9.68-9.68Z"></path>
  <path fill="#333" d="M472 34.13a6.21 6.21 0 1 0-6.21 6.22A6.21 6.21 0 0 0 472 34.13ZM494.22 18.16A6.22 6.22 0 1 0 488 24.37 6.21 6.21 0 0 0 494.22 18.16ZM494.22 51.44A6.22 6.22 0 1 0 488 57.65 6.21 6.21 0 0 0 494.22 51.44Z"></path>
  <path fill="#333" d="M487.18 52.5 465 35.19a1.33 1.33 0 0 1 0-2.14l22.18-16 1.57 2.18L468.06 34.18l20.77 16.2ZM368.11 26l-3.19 3.37a4.74 4.74 0 0 0-1.66-1.29 4.69 4.69 0 0 0-2-.49 4.09 4.09 0 0 0-2 .48 1.77 1.77 0 0 0 0 3.11 7.49 7.49 0 0 0 .95.46c.31.13.76.28 1.35.46.76.25 1.35.46 1.78.61a14 14 0 0 1 1.66.78 6.24 6.24 0 0 1 1.57 1.13 5.43 5.43 0 0 1 1 1.57 5.07 5.07 0 0 1 .44 2.15 6.07 6.07 0 0 1-2.3 5.14A8.91 8.91 0 0 1 360 45.3a12.31 12.31 0 0 1-4.34-.79 9.14 9.14 0 0 1-3.42-2.2L355.54 39a5.73 5.73 0 0 0 2 1.58 5.54 5.54 0 0 0 2.47.62 3.58 3.58 0 0 0 2.07-.55 1.9 1.9 0 0 0 .8-1.71 1.6 1.6 0 0 0-.22-.84 2.49 2.49 0 0 0-.48-.61 3.27 3.27 0 0 0-.94-.54c-.45-.2-.83-.35-1.14-.46L358.59 36a16.41 16.41 0 0 1-2-.79A9.51 9.51 0 0 1 355 34.07a4.31 4.31 0 0 1-1.26-1.7 6 6 0 0 1-.44-2.37 6.24 6.24 0 0 1 .7-2.95A5.48 5.48 0 0 1 355.86 25a9.5 9.5 0 0 1 2.56-1.13 11.12 11.12 0 0 1 2.89-.38 10.71 10.71 0 0 1 3.65.66A9.07 9.07 0 0 1 368.11 26ZM389.39 44.77h-5V36.1h-8.09v8.67h-5V24h5v7.85h8.09V24h5ZM413.3 44.77h-5.56l-1.62-4.07h-8l-1.52 4.07h-5.45L399.82 24h4.87Zm-8.55-8.09-2.58-7.12-2.64 7.12ZM432 44.77h-5.86l-4.48-8.23H420v8.23H415V24H423a12.9 12.9 0 0 1 2.93.32 9 9 0 0 1 2.52 1 4.88 4.88 0 0 1 1.83 2 6.3 6.3 0 0 1 .66 3 5.57 5.57 0 0 1-1.14 3.52 6.17 6.17 0 0 1-3.17 2.08Zm-6.06-14.39c0-1.54-1.12-2.32-3.35-2.32h-2.66V32.9h2.37C424.72 32.9 425.94 32.06 425.94 30.38ZM448.94 44.77H434.46V24h14v4.25H439.3v3.9h8.62v4H439.3v4.31h9.64Z"></path>
  <circle cx="716.53" cy="463.62" r="32.14" fill="#f8bb24" transform="rotate(-45 716.526 463.615)"></circle>
  <path fill="#333" d="M716.49,497.1h0a33.62,33.62,0,0,1-33.1-28.78,33.47,33.47,0,0,1,28.44-37.85,34.38,34.38,0,0,1,4.75-.34,33.48,33.48,0,0,1,4.66,66.63A33,33,0,0,1,716.49,497.1Zm.08-64.28A30.79,30.79,0,0,0,686,467.94a30.92,30.92,0,0,0,30.44,26.48h0a32.07,32.07,0,0,0,4.36-.31,30.8,30.8,0,0,0-4.28-61.29Z"></path>
  <path fill="#333" d="M725.13 462.41a1.38 1.38 0 0 1-1.34-1.35l-.34-12.22a1.37 1.37 0 0 1 1.3-1.43h0a1.36 1.36 0 0 1 1.34 1.33l.34 12.24a1.37 1.37 0 0 1-1.3 1.43ZM705.65 462.41c-.72 0-1.32-.34-1.34-1.07L704 449.48c0-.74.56-1.07 1.3-1.07h0a1.19 1.19 0 0 1 1.34 1.11l.34 11.84c0 .74-.56 1.05-1.3 1.05ZM715.56 482.13c-16 0-20.69-15.51-20.74-15.67a1.35 1.35 0 0 1 .92-1.66 1.34 1.34 0 0 1 1.66.91h0c.17.57 4.21 13.73 18.16 13.73h.63c14.43-.41 17.26-13.37 17.37-13.92a1.35 1.35 0 0 1 1.59-1 1.33 1.33 0 0 1 1 1.58c0 .15-3.33 15.59-19.92 16.06Z"></path>
  <path fill="#cc3b3b" d="M114.1,535.32a12.51,12.51,0,0,0-10.75,6.58A12.56,12.56,0,0,0,80,548.63c.14,7,10.49,16,24.11,30.42,12.32-13.71,23-24.44,22.83-31.4A12.59,12.59,0,0,0,114.1,535.32Z"></path>
  <path fill="#333" d="M104.12,580.4a1.36,1.36,0,0,1-1-.43c-2.68-2.85-5.2-5.44-7.63-8-10.07-10.39-16.72-17.26-16.85-23.37a14,14,0,0,1,13.65-14.22h.29a13.74,13.74,0,0,1,10.7,5.09A13.9,13.9,0,0,1,114.07,534h.29a14,14,0,0,1,13.93,13.65c.14,6.63-8.16,15.77-18.66,27.34-1.47,1.62-3,3.28-4.51,5a1.37,1.37,0,0,1-1,.45ZM92.6,537.11h-.23a11.27,11.27,0,0,0-11,11.49c.1,5,6.81,12,16.09,21.55,2.13,2.2,4.33,4.47,6.66,6.93q1.8-2,3.54-3.92c9.71-10.69,18.09-19.93,18-25.48a11.31,11.31,0,0,0-11.25-11h-.24a11.25,11.25,0,0,0-9.59,5.88,1.36,1.36,0,0,1-1.15.7,1.33,1.33,0,0,1-1.18-.65A11.16,11.16,0,0,0,92.6,537.11Z"></path>
  <path fill="#cc3b3b" d="M80.81,608A24.34,24.34,0,0,0,60,620.75a24.34,24.34,0,0,0-45.24,13c.28,13.48,20.35,30.94,46.74,59,23.87-26.59,44.53-47.39,44.25-60.87A24.42,24.42,0,0,0,80.81,608Z"></path>
  <path fill="#333" d="M61.48,694.12a1.35,1.35,0,0,1-1-.42c-5.21-5.54-10.08-10.57-14.8-15.44-19.31-19.93-32.07-33.09-32.3-44.44a25.79,25.79,0,0,1,25.22-26.29,25.46,25.46,0,0,1,21.31,10.71,25.68,25.68,0,0,1,47.15,13.64c.25,12.33-15.68,29.89-35.86,52.12-2.84,3.13-5.77,6.36-8.74,9.67a1.37,1.37,0,0,1-1,.45ZM39.16,610.21h-.49a23.1,23.1,0,0,0-22.59,23.55c.21,10.29,13.36,23.85,31.55,42.63,4.42,4.56,9,9.26,13.82,14.4q4-4.41,7.79-8.6c19.77-21.79,35.39-39,35.15-50.26A23,23,0,0,0,61.16,621.4a1.34,1.34,0,0,1-2.32,0A22.89,22.89,0,0,0,39.16,610.21Z"></path>
</svg>
